<svg version="1.1" id="Layer_1" xmlns="http://www.w3.org/2000/svg" xmlns:xlink="http://www.w3.org/1999/xlink" x="0px" y="0px"
	 width="100%" viewBox="0 0 183 159" enable-background="new 0 0 183 159" xml:space="preserve">
<path fill="#F9F9F9" opacity="1.000000" stroke="none" 
	d="
M133.000000,160.000000 
	C88.666672,160.000000 44.833340,160.000000 1.000006,160.000000 
	C1.000004,107.000008 1.000004,54.000011 1.000002,1.000013 
	C61.999989,1.000009 122.999977,1.000009 183.999969,1.000004 
	C183.999985,53.999989 183.999985,106.999977 184.000000,159.999985 
	C167.166672,160.000000 150.333328,160.000000 133.000000,160.000000 
M88.030159,109.309265 
	C86.277931,106.737785 84.359879,104.260567 82.827103,101.564331 
	C81.648766,99.491570 80.655823,97.199875 80.217056,94.884872 
	C80.073128,94.125488 81.926712,92.987526 82.866837,92.022682 
	C83.673004,92.861664 84.713646,93.579567 85.225403,94.570580 
	C85.851418,95.782837 86.034149,97.224022 86.408546,98.566216 
	C87.131180,98.331230 87.853806,98.096252 88.576439,97.861267 
	C87.648979,95.365494 87.299538,92.283730 85.581688,90.589256 
	C84.516464,89.538544 80.236839,89.763084 79.417023,90.886757 
	C77.994591,92.836395 77.389557,96.065811 77.842384,98.497749 
	C78.251617,100.695511 80.603439,102.498238 81.969765,104.560532 
	C83.321884,106.601395 85.069168,108.630638 85.551582,110.897278 
	C85.812447,112.122978 83.792809,113.834038 82.801964,115.326141 
	C81.586609,114.243866 80.070465,113.347427 79.250771,112.020691 
	C78.591484,110.953583 78.775009,109.365753 78.584572,108.008980 
	C77.996017,108.046890 77.407471,108.084801 76.818924,108.122711 
	C77.008057,110.421837 76.425972,113.304077 77.600822,114.857895 
	C78.802567,116.447304 81.817932,117.550682 83.866776,117.321754 
	C85.383934,117.152237 86.624611,114.508209 88.736168,112.830391 
	C89.371582,113.985100 89.825089,115.946808 90.677475,116.138954 
	C92.976105,116.657082 95.723038,117.072296 97.730385,116.214294 
	C98.759781,115.774307 98.588196,112.524551 99.085854,109.869881 
	C96.586899,112.279655 95.119560,113.694641 93.652214,115.109627 
	C92.895317,113.007835 92.138420,110.906052 91.201073,108.303192 
	C94.603249,108.104530 96.821510,107.975006 99.272324,107.831894 
	C99.272324,106.632233 99.286583,105.814957 99.269867,104.998314 
	C99.194756,101.328796 99.646286,97.052773 94.193596,97.180618 
	C89.306007,97.295219 89.386658,101.222679 89.131073,104.802933 
	C89.005135,106.566925 88.383667,108.295540 88.030159,109.309265 
M109.823326,99.458191 
	C109.857841,103.617065 109.709969,107.787590 109.974640,111.931763 
	C110.281456,116.736023 112.574608,118.303040 117.224739,117.352608 
	C118.503258,117.091301 119.795433,116.896873 121.083405,116.671394 
	C121.083405,112.686020 121.083405,108.762123 121.083405,104.431854 
	C118.834091,104.643959 116.928429,104.823662 114.041557,105.095894 
	C115.394867,106.245796 115.727463,106.776466 116.101700,106.807655 
	C119.491478,107.090286 119.213509,109.525261 118.451782,111.507553 
	C117.892426,112.963234 116.279175,114.013939 115.135590,115.245117 
	C114.144012,113.749779 112.430214,112.315872 112.296822,110.747543 
	C111.903183,106.119507 111.841522,101.410530 112.278152,96.792618 
	C112.435089,95.132706 114.380974,93.641930 115.510422,92.073959 
	C116.574944,93.506523 117.742004,94.876869 118.663872,96.396004 
	C119.181282,97.248650 119.293175,98.347382 119.587769,99.335243 
	C120.265999,99.166496 120.944237,98.997757 121.622467,98.829018 
	C120.863403,96.197441 120.787109,92.923981 119.117699,91.148232 
	C117.899437,89.852364 114.024239,89.601967 112.365189,90.600220 
	C110.846771,91.513863 110.712303,94.727554 109.280708,97.519844 
	C107.408028,95.674774 105.535339,93.829704 103.665482,91.974480 
	C102.916023,94.097343 102.166565,96.220200 101.502449,98.101334 
	C101.993042,99.910400 102.767525,101.642960 102.879272,103.417244 
	C103.097610,106.884293 102.822449,110.380241 102.979660,113.853905 
	C103.158356,117.802277 104.862694,118.467041 107.930138,116.760796 
	C107.190567,114.460838 106.282974,112.465775 105.952629,110.379311 
	C105.619484,108.275192 106.053391,106.057533 105.803268,103.930534 
	C105.415619,100.634056 106.809616,98.938393 109.823326,99.458191 
M66.598396,63.044983 
	C66.598396,63.044983 66.999741,63.074181 66.999741,63.074181 
	C66.999741,63.074181 67.402000,63.063423 67.579315,63.843544 
	C69.505096,69.019669 71.603668,69.555901 76.882195,66.047272 
	C77.141312,66.042175 77.400436,66.037079 77.724068,66.757149 
	C78.347992,73.857750 81.553574,77.893990 87.530075,78.248665 
	C90.027252,78.396851 93.414818,78.187294 94.952034,76.673004 
	C97.746468,73.920250 99.460297,70.070526 101.690849,66.575546 
	C107.299805,69.439690 109.066910,68.866951 110.928413,63.071487 
	C111.218254,63.052986 111.508278,63.037945 112.148132,63.675140 
	C114.038124,66.198845 116.422493,67.091904 118.953484,64.906967 
	C122.253845,62.057846 120.234016,59.320118 118.654152,57.417595 
	C120.205177,55.667294 121.541405,54.159378 122.877640,52.651463 
	C120.937004,51.800831 119.056046,50.735500 117.035126,50.173664 
	C115.645454,49.787323 114.061584,50.099491 112.564514,50.099491 
	C105.959099,50.099480 99.353683,50.099487 92.769424,50.099487 
	C92.769424,47.692459 92.769424,45.932777 92.769424,43.940800 
	C94.348732,43.823177 95.639900,43.670185 96.933723,43.642616 
	C99.540871,43.587059 102.397972,43.462017 102.374710,40.048004 
	C102.350380,36.475903 99.318756,36.685661 96.819153,36.765842 
	C94.514992,36.839756 92.991539,36.596218 91.940796,33.885586 
	C90.920853,31.254416 87.447815,30.906626 86.447830,33.388233 
	C84.979332,37.032551 82.538986,36.446381 79.831047,36.898251 
	C78.262375,37.160007 76.931458,38.846603 75.493538,39.891983 
	C76.955772,41.131641 78.246758,42.770962 79.930954,43.492599 
	C81.453911,44.145157 83.406334,43.795418 85.247803,43.891754 
	C85.247803,46.148586 85.247803,47.890350 85.247803,50.099476 
	C83.173943,50.099476 81.377159,50.099068 79.580376,50.099548 
	C72.760399,50.101379 65.936134,49.978336 59.124077,50.211655 
	C57.770130,50.258030 56.462959,51.669987 55.134220,52.452232 
	C56.214577,53.658020 57.254524,54.904469 58.400974,56.043743 
	C58.726505,56.367237 59.362305,56.378510 60.167515,56.630520 
	C57.318577,59.553078 55.843269,62.390362 59.225311,65.045929 
	C62.116669,67.316200 64.484818,65.838852 66.598396,63.044983 
M133.834290,109.282967 
	C133.718857,106.799706 134.151031,104.111717 133.322296,101.895142 
	C132.602737,99.970596 130.270111,97.122726 128.982849,97.287071 
	C126.944771,97.547287 123.949577,99.721489 123.563423,101.550995 
	C122.759125,105.361542 123.003647,109.540215 123.632965,113.435829 
	C123.892052,115.039597 126.062096,117.077477 127.718018,117.488945 
	C129.167343,117.849091 131.605209,116.621941 132.696304,115.328369 
	C133.692856,114.146881 133.469177,111.936165 133.834290,109.282967 
M45.237595,115.092812 
	C47.230003,115.803207 49.440243,117.378181 51.145420,116.948563 
	C52.492733,116.609100 53.987892,113.848038 54.084656,112.089104 
	C54.448502,105.475105 54.294479,98.830910 54.252327,92.198547 
	C54.247341,91.414764 53.735153,90.634216 53.458084,89.852165 
	C53.050949,89.860558 52.643814,89.868942 52.236683,89.877335 
	C52.019936,91.673103 51.639400,93.466835 51.617065,95.265022 
	C51.549313,100.719177 51.740696,106.179512 51.538891,111.626617 
	C51.496792,112.762939 50.201199,113.852821 49.483257,114.964104 
	C48.684757,113.915352 47.639572,112.967491 47.157696,111.789253 
	C46.683632,110.630096 46.780998,109.237251 46.627621,107.946945 
	C46.089157,107.968391 45.550690,107.989830 45.012222,108.011276 
	C45.012222,110.130478 45.012222,112.249687 45.237595,115.092812 
M56.613331,115.364357 
	C58.795052,118.566437 61.801720,118.664467 64.266891,116.364174 
	C65.489288,115.223541 65.291550,112.560982 65.736305,110.586967 
	C65.389343,110.628258 65.042389,110.669556 64.695427,110.710854 
	C63.258862,112.190811 61.822289,113.670769 60.385719,115.150726 
	C59.530674,113.099327 58.675625,111.047920 57.550514,108.348595 
	C61.074402,108.141380 63.325626,108.009003 65.989372,107.852371 
	C65.989372,106.138275 66.025879,104.680672 65.981972,103.225487 
	C65.882607,99.932541 64.969109,97.165947 61.003418,97.147972 
	C57.060936,97.130104 55.952808,99.800072 55.958454,103.154518 
	C55.964890,106.978432 56.121319,110.802094 56.613331,115.364357 
M72.277344,110.344460 
	C72.688538,106.102043 73.099731,101.859634 73.593216,96.768173 
	C73.171432,95.938522 72.146622,93.922768 71.121819,91.907005 
	C71.022980,94.892647 67.308365,96.429810 69.158653,100.632385 
	C70.814949,104.394356 69.577324,109.415894 69.680870,113.880211 
	C69.781944,118.237694 72.111961,117.978371 74.779541,117.172401 
	C73.756447,114.800270 72.998901,113.043816 72.277344,110.344460 
z"/>
<path fill="#3B5C79" opacity="1.000000" stroke="none" 
	d="
M76.105087,66.022079 
	C71.603668,69.555901 69.505096,69.019669 67.694122,63.125221 
	C68.900291,60.883640 69.991661,59.360378 71.574608,57.151009 
	C68.691277,56.972118 66.628304,56.844124 64.775337,56.729160 
	C65.292282,59.020260 65.744141,61.022873 66.195999,63.025486 
	C64.484818,65.838852 62.116669,67.316200 59.225311,65.045929 
	C55.843269,62.390362 57.318577,59.553078 60.167515,56.630520 
	C59.362305,56.378510 58.726505,56.367237 58.400974,56.043743 
	C57.254524,54.904469 56.214577,53.658020 55.134220,52.452232 
	C56.462959,51.669987 57.770130,50.258030 59.124077,50.211655 
	C65.936134,49.978336 72.760399,50.101379 79.580376,50.099548 
	C81.377159,50.099068 83.173943,50.099476 85.247803,50.099476 
	C85.247803,47.890350 85.247803,46.148586 85.247803,43.891754 
	C83.406334,43.795418 81.453911,44.145157 79.930954,43.492599 
	C78.246758,42.770962 76.955772,41.131641 75.493538,39.891983 
	C76.931458,38.846603 78.262375,37.160007 79.831047,36.898251 
	C82.538986,36.446381 84.979332,37.032551 86.447830,33.388233 
	C87.447815,30.906626 90.920853,31.254416 91.940796,33.885586 
	C92.991539,36.596218 94.514992,36.839756 96.819153,36.765842 
	C99.318756,36.685661 102.350380,36.475903 102.374710,40.048004 
	C102.397972,43.462017 99.540871,43.587059 96.933723,43.642616 
	C95.639900,43.670185 94.348732,43.823177 92.769424,43.940800 
	C92.769424,45.932777 92.769424,47.692459 92.769424,50.099487 
	C99.353683,50.099487 105.959099,50.099480 112.564514,50.099491 
	C114.061584,50.099491 115.645454,49.787323 117.035126,50.173664 
	C119.056046,50.735500 120.937004,51.800831 122.877640,52.651463 
	C121.541405,54.159378 120.205177,55.667294 118.654152,57.417595 
	C120.234016,59.320118 122.253845,62.057846 118.953484,64.906967 
	C116.422493,67.091904 114.038124,66.198845 111.994873,62.953152 
	C112.310768,60.482464 112.779922,58.733768 113.328888,56.687538 
	C111.151741,56.889866 109.148071,57.076069 106.516022,57.320667 
	C108.149338,59.674179 109.321251,61.362843 110.493164,63.051506 
	C109.066910,68.866951 107.299805,69.439690 101.690849,66.575546 
	C99.460297,70.070526 97.746468,73.920250 94.952034,76.673004 
	C93.414818,78.187294 90.027252,78.396851 87.530075,78.248665 
	C81.553574,77.893990 78.347992,73.857750 77.810745,66.085251 
	C78.796288,63.009083 79.695160,60.604816 80.725182,57.849743 
	C78.142441,57.700630 75.709984,57.560196 73.921227,57.456924 
	C74.741211,60.672913 75.423149,63.347496 76.105087,66.022079 
M81.335030,71.909912 
	C86.297577,77.622505 93.734390,77.363220 96.895576,71.367401 
	C98.869217,67.623993 97.931183,62.482368 94.625351,59.585121 
	C91.569611,56.907055 88.200539,56.459892 84.630737,58.579609 
	C80.629555,60.955467 79.277786,65.678047 81.335030,71.909912 
M66.069283,54.432663 
	C82.942520,56.500713 113.727074,55.642628 119.542976,52.938477 
	C99.129326,52.938477 78.715675,52.938477 58.302029,52.938477 
	C58.298241,53.215981 58.294449,53.493481 58.290661,53.770985 
	C60.585712,53.952496 62.880768,54.134007 66.069283,54.432663 
M88.019722,36.767986 
	C88.019722,41.135303 88.019722,45.502621 88.019722,49.869938 
	C88.656563,49.853153 89.293404,49.836369 89.930244,49.819584 
	C89.930244,45.189819 89.935715,40.559956 89.853294,35.931660 
	C89.852463,35.884907 88.691284,35.858818 88.019722,36.767986 
z"/>
<path fill="#383838" opacity="1.000000" stroke="none" 
	d="
M109.967987,96.927704 
	C110.712303,94.727554 110.846771,91.513863 112.365189,90.600220 
	C114.024239,89.601967 117.899437,89.852364 119.117699,91.148232 
	C120.787109,92.923981 120.863403,96.197441 121.622467,98.829018 
	C120.944237,98.997757 120.265999,99.166496 119.587769,99.335243 
	C119.293175,98.347382 119.181282,97.248650 118.663872,96.396004 
	C117.742004,94.876869 116.574944,93.506523 115.510422,92.073959 
	C114.380974,93.641930 112.435089,95.132706 112.278152,96.792618 
	C111.841522,101.410530 111.903183,106.119507 112.296822,110.747543 
	C112.430214,112.315872 114.144012,113.749779 115.135590,115.245117 
	C116.279175,114.013939 117.892426,112.963234 118.451782,111.507553 
	C119.213509,109.525261 119.491478,107.090286 116.101700,106.807655 
	C115.727463,106.776466 115.394867,106.245796 114.041557,105.095894 
	C116.928429,104.823662 118.834091,104.643959 121.083405,104.431854 
	C121.083405,108.762123 121.083405,112.686020 121.083405,116.671394 
	C119.795433,116.896873 118.503258,117.091301 117.224739,117.352608 
	C112.574608,118.303040 110.281456,116.736023 109.974640,111.931763 
	C109.709969,107.787590 109.857841,103.617065 109.949249,98.813660 
	C110.039436,97.755318 110.003716,97.341515 109.967987,96.927704 
z"/>
<path fill="#3F3F3F" opacity="1.000000" stroke="none" 
	d="
M87.988457,112.966537 
	C86.624611,114.508209 85.383934,117.152237 83.866776,117.321754 
	C81.817932,117.550682 78.802567,116.447304 77.600822,114.857895 
	C76.425972,113.304077 77.008057,110.421837 76.818924,108.122711 
	C77.407471,108.084801 77.996017,108.046890 78.584572,108.008980 
	C78.775009,109.365753 78.591484,110.953583 79.250771,112.020691 
	C80.070465,113.347427 81.586609,114.243866 82.801964,115.326141 
	C83.792809,113.834038 85.812447,112.122978 85.551582,110.897278 
	C85.069168,108.630638 83.321884,106.601395 81.969765,104.560532 
	C80.603439,102.498238 78.251617,100.695511 77.842384,98.497749 
	C77.389557,96.065811 77.994591,92.836395 79.417023,90.886757 
	C80.236839,89.763084 84.516464,89.538544 85.581688,90.589256 
	C87.299538,92.283730 87.648979,95.365494 88.576439,97.861267 
	C87.853806,98.096252 87.131180,98.331230 86.408546,98.566216 
	C86.034149,97.224022 85.851418,95.782837 85.225403,94.570580 
	C84.713646,93.579567 83.673004,92.861664 82.866837,92.022682 
	C81.926712,92.987526 80.073128,94.125488 80.217056,94.884872 
	C80.655823,97.199875 81.648766,99.491570 82.827103,101.564331 
	C84.359879,104.260567 86.277931,106.737785 87.996605,110.040421 
	C87.971519,111.503227 87.979988,112.234886 87.988457,112.966537 
z"/>
<path fill="#444444" opacity="1.000000" stroke="none" 
	d="
M88.362312,112.898468 
	C87.979988,112.234886 87.971519,111.503227 87.974739,110.405869 
	C88.383667,108.295540 89.005135,106.566925 89.131073,104.802933 
	C89.386658,101.222679 89.306007,97.295219 94.193596,97.180618 
	C99.646286,97.052773 99.194756,101.328796 99.269867,104.998314 
	C99.286583,105.814957 99.272324,106.632233 99.272324,107.831894 
	C96.821510,107.975006 94.603249,108.104530 91.201073,108.303192 
	C92.138420,110.906052 92.895317,113.007835 93.652214,115.109627 
	C95.119560,113.694641 96.586899,112.279655 99.085854,109.869881 
	C98.588196,112.524551 98.759781,115.774307 97.730385,116.214294 
	C95.723038,117.072296 92.976105,116.657082 90.677475,116.138954 
	C89.825089,115.946808 89.371582,113.985100 88.362312,112.898468 
M96.582909,101.965500 
	C95.519173,101.288353 94.455437,100.611206 93.391701,99.934059 
	C92.789169,101.761360 92.186630,103.588654 91.508202,105.646126 
	C94.846779,106.049751 97.418983,106.774788 96.582909,101.965500 
z"/>
<path fill="#484848" opacity="1.000000" stroke="none" 
	d="
M133.808777,109.731003 
	C133.469177,111.936165 133.692856,114.146881 132.696304,115.328369 
	C131.605209,116.621941 129.167343,117.849091 127.718018,117.488945 
	C126.062096,117.077477 123.892052,115.039597 123.632965,113.435829 
	C123.003647,109.540215 122.759125,105.361542 123.563423,101.550995 
	C123.949577,99.721489 126.944771,97.547287 128.982849,97.287071 
	C130.270111,97.122726 132.602737,99.970596 133.322296,101.895142 
	C134.151031,104.111717 133.718857,106.799706 133.808777,109.731003 
M130.600586,113.738113 
	C130.692520,109.945244 130.939133,106.145226 130.764328,102.364685 
	C130.722214,101.454048 129.283844,100.607971 128.487579,99.732201 
	C127.672668,100.595718 126.239418,101.402763 126.154457,102.332954 
	C125.854843,105.613068 125.888176,108.941597 126.045898,112.239769 
	C126.171661,114.869576 127.611763,115.717903 130.600586,113.738113 
z"/>
<path fill="#383838" opacity="1.000000" stroke="none" 
	d="
M45.124908,114.730850 
	C45.012222,112.249687 45.012222,110.130478 45.012222,108.011276 
	C45.550690,107.989830 46.089157,107.968391 46.627621,107.946945 
	C46.780998,109.237251 46.683632,110.630096 47.157696,111.789253 
	C47.639572,112.967491 48.684757,113.915352 49.483261,114.964104 
	C50.201199,113.852821 51.496792,112.762939 51.538891,111.626617 
	C51.740696,106.179512 51.549313,100.719177 51.617065,95.265022 
	C51.639400,93.466835 52.019936,91.673103 52.236683,89.877335 
	C52.643814,89.868942 53.050949,89.860558 53.458084,89.852165 
	C53.735153,90.634216 54.247341,91.414764 54.252327,92.198547 
	C54.294479,98.830910 54.448502,105.475105 54.084656,112.089104 
	C53.987892,113.848038 52.492733,116.609100 51.145420,116.948563 
	C49.440243,117.378181 47.230003,115.803207 45.124908,114.730850 
z"/>
<path fill="#404040" opacity="1.000000" stroke="none" 
	d="
M56.412945,114.995117 
	C56.121319,110.802094 55.964890,106.978432 55.958454,103.154518 
	C55.952808,99.800072 57.060936,97.130104 61.003418,97.147972 
	C64.969109,97.165947 65.882607,99.932541 65.981972,103.225487 
	C66.025879,104.680672 65.989372,106.138275 65.989372,107.852371 
	C63.325626,108.009003 61.074402,108.141380 57.550514,108.348595 
	C58.675625,111.047920 59.530674,113.099327 60.385719,115.150726 
	C61.822289,113.670769 63.258862,112.190811 64.695427,110.710854 
	C65.042389,110.669556 65.389343,110.628258 65.736305,110.586967 
	C65.291550,112.560982 65.489288,115.223541 64.266891,116.364174 
	C61.801720,118.664467 58.795052,118.566437 56.412945,114.995117 
M61.948364,99.888931 
	C58.451565,100.459991 57.160812,102.983124 59.188881,105.980080 
	C60.376854,105.911438 61.747311,105.832253 63.764317,105.715721 
	C63.283199,103.621292 62.903477,101.968254 61.948364,99.888931 
z"/>
<path fill="#363636" opacity="1.000000" stroke="none" 
	d="
M72.259346,110.815910 
	C72.998901,113.043816 73.756447,114.800270 74.779541,117.172401 
	C72.111961,117.978371 69.781944,118.237694 69.680870,113.880211 
	C69.577324,109.415894 70.814949,104.394356 69.158653,100.632385 
	C67.308365,96.429810 71.022980,94.892647 71.121819,91.907005 
	C72.146622,93.922768 73.171432,95.938522 73.593216,96.768173 
	C73.099731,101.859634 72.688538,106.102043 72.259346,110.815910 
z"/>
<path fill="#464646" opacity="1.000000" stroke="none" 
	d="
M109.624352,97.223770 
	C110.003716,97.341515 110.039436,97.755318 110.020981,98.316101 
	C106.809616,98.938393 105.415619,100.634056 105.803268,103.930534 
	C106.053391,106.057533 105.619484,108.275192 105.952629,110.379311 
	C106.282974,112.465775 107.190567,114.460838 107.930138,116.760796 
	C104.862694,118.467041 103.158356,117.802277 102.979660,113.853905 
	C102.822449,110.380241 103.097610,106.884293 102.879272,103.417244 
	C102.767525,101.642960 101.993042,99.910400 101.502449,98.101334 
	C102.166565,96.220200 102.916023,94.097343 103.664062,91.979553 
	C105.535339,93.829704 107.408028,95.674774 109.624352,97.223770 
z"/>
<path fill="#DFE3E7" opacity="1.000000" stroke="none" 
	d="
M76.493637,66.034676 
	C75.423149,63.347496 74.741211,60.672913 73.921227,57.456924 
	C75.709984,57.560196 78.142441,57.700630 80.725182,57.849743 
	C79.695160,60.604816 78.796288,63.009083 77.778488,65.722664 
	C77.400436,66.037079 77.141312,66.042175 76.493637,66.034676 
z"/>
<path fill="#E5E9EC" opacity="1.000000" stroke="none" 
	d="
M110.710785,63.061497 
	C109.321251,61.362843 108.149338,59.674179 106.516022,57.320667 
	C109.148071,57.076069 111.151741,56.889866 113.328888,56.687538 
	C112.779922,58.733768 112.310768,60.482464 111.820053,62.628761 
	C111.508278,63.037945 111.218254,63.052986 110.710785,63.061497 
z"/>
<path fill="#E5E9EC" opacity="1.000000" stroke="none" 
	d="
M66.397202,63.035233 
	C65.744141,61.022873 65.292282,59.020260 64.775337,56.729160 
	C66.628304,56.844124 68.691277,56.972118 71.574608,57.151009 
	C69.991661,59.360378 68.900291,60.883640 67.605461,62.735161 
	C67.402000,63.063423 66.999741,63.074181 66.999741,63.074181 
	C66.999741,63.074181 66.598396,63.044983 66.397202,63.035233 
z"/>
<path fill="#F3F4F5" opacity="1.000000" stroke="none" 
	d="
M81.163422,71.554680 
	C79.277786,65.678047 80.629555,60.955467 84.630737,58.579609 
	C88.200539,56.459892 91.569611,56.907055 94.625351,59.585121 
	C97.931183,62.482368 98.869217,67.623993 96.895576,71.367401 
	C93.734390,77.363220 86.297577,77.622505 81.163422,71.554680 
M82.639885,63.925587 
	C83.001221,64.550766 83.362556,65.175949 83.723900,65.801125 
	C87.513863,62.402832 91.436127,63.805302 95.589142,66.113869 
	C93.661751,60.643753 88.732910,59.769531 82.639885,63.925587 
z"/>
<path fill="#CCD4DB" opacity="1.000000" stroke="none" 
	d="
M65.622551,54.374092 
	C62.880768,54.134007 60.585712,53.952496 58.290661,53.770985 
	C58.294449,53.493481 58.298241,53.215981 58.302029,52.938477 
	C78.715675,52.938477 99.129326,52.938477 119.546158,52.940224 
	C113.727074,55.642628 82.942520,56.500713 65.622551,54.374092 
z"/>
<path fill="#FAFAFA" opacity="1.000000" stroke="none" 
	d="
M88.045761,36.295532 
	C88.691284,35.858818 89.852463,35.884907 89.853294,35.931660 
	C89.935715,40.559956 89.930244,45.189819 89.930244,49.819584 
	C89.293404,49.836369 88.656563,49.853153 88.019722,49.869938 
	C88.019722,45.502621 88.019722,41.135303 88.045761,36.295532 
z"/>
<path fill="#EEEEEE" opacity="1.000000" stroke="none" 
	d="
M96.704956,102.370834 
	C97.418983,106.774788 94.846779,106.049751 91.508202,105.646126 
	C92.186630,103.588654 92.789169,101.761360 93.391701,99.934059 
	C94.455437,100.611206 95.519173,101.288353 96.704956,102.370834 
z"/>
<path fill="#F5F5F5" opacity="1.000000" stroke="none" 
	d="
M130.325119,114.077751 
	C127.611763,115.717903 126.171661,114.869576 126.045898,112.239769 
	C125.888176,108.941597 125.854843,105.613068 126.154457,102.332954 
	C126.239418,101.402763 127.672668,100.595718 128.487579,99.732201 
	C129.283844,100.607971 130.722214,101.454048 130.764328,102.364685 
	C130.939133,106.145226 130.692520,109.945244 130.325119,114.077751 
z"/>
<path fill="#DEDEDE" opacity="1.000000" stroke="none" 
	d="
M62.236061,100.102081 
	C62.903477,101.968254 63.283199,103.621292 63.764317,105.715721 
	C61.747311,105.832253 60.376854,105.911438 59.188881,105.980080 
	C57.160812,102.983124 58.451565,100.459991 62.236061,100.102081 
z"/>
<path fill="#4D6B85" opacity="1.000000" stroke="none" 
	d="
M82.838348,63.609543 
	C88.732910,59.769531 93.661751,60.643753 95.589142,66.113869 
	C91.436127,63.805302 87.513863,62.402832 83.723900,65.801125 
	C83.362556,65.175949 83.001221,64.550766 82.838348,63.609543 
z"/>
</svg>